<svg xmlns="http://www.w3.org/2000/svg" xmlns:xlink="http://www.w3.org/1999/xlink" width="500" zoomAndPan="magnify" viewBox="0 0 375 225" height="300" preserveAspectRatio="xMidYMid meet" version="1.0"><defs><g/><clipPath id="d87442194b"><path d="M 72.125 99.492188 L 125.371094 99.492188 L 125.371094 116 L 72.125 116 Z M 72.125 99.492188 " clip-rule="nonzero"/></clipPath><clipPath id="709829b349"><path d="M 75 111 L 82 111 L 82 117.597656 L 75 117.597656 Z M 75 111 " clip-rule="nonzero"/></clipPath><clipPath id="81fbb3921e"><path d="M 115 111 L 122 111 L 122 117.597656 L 115 117.597656 Z M 115 111 " clip-rule="nonzero"/></clipPath><clipPath id="5f53c88419"><path d="M 107 111 L 114 111 L 114 117.597656 L 107 117.597656 Z M 107 111 " clip-rule="nonzero"/></clipPath></defs><g fill="#0268a3" fill-opacity="1"><g transform="translate(58.016668, 127.176359)"><g><path d="M 22.9375 0.0625 L 1.8125 0.0625 L 1.8125 -42.25 L 22.9375 -42.25 C 25.832031 -42.25 28.554688 -41.695312 31.109375 -40.59375 C 33.671875 -39.488281 35.925781 -37.96875 37.875 -36.03125 C 39.820312 -34.101562 41.335938 -31.847656 42.421875 -29.265625 C 43.515625 -26.691406 44.0625 -23.957031 44.0625 -21.0625 C 44.0625 -18.164062 43.515625 -15.4375 42.421875 -12.875 C 41.335938 -10.320312 39.820312 -8.070312 37.875 -6.125 C 35.925781 -4.175781 33.671875 -2.65625 31.109375 -1.5625 C 28.554688 -0.476562 25.832031 0.0625 22.9375 0.0625 Z M 22.9375 0.0625 "/></g></g></g><g fill="#0268a3" fill-opacity="1"><g transform="translate(100.933287, 127.176359)"><g><path d="M 1.75 -42.3125 L 36.765625 -42.3125 L 36.765625 -28.0625 L 28 -28.0625 L 28 -26.25 L 36.765625 -26.25 L 36.765625 -16.109375 L 28 -16.109375 L 28 -14.3125 L 36.765625 -14.3125 L 36.765625 -0.0625 L 1.75 -0.0625 Z M 1.75 -42.3125 "/></g></g></g><g fill="#0268a3" fill-opacity="1"><g transform="translate(137.210188, 127.176359)"><g><path d="M 1.8125 0 L 1.6875 -43.875 L 22.8125 -27.890625 L 43.9375 -43.875 L 44.0625 0 Z M 1.8125 0 "/></g></g></g><g fill="#0268a3" fill-opacity="1"><g transform="translate(180.730413, 127.176359)"><g><path d="M -1.6875 0 L 24.984375 -45.203125 L 51.671875 0 Z M -1.6875 0 "/></g></g></g><g fill="#0268a3" fill-opacity="1"><g transform="translate(228.294821, 127.176359)"><g><path d="M 1.8125 -43.28125 L 23.0625 -26.671875 L 23.0625 -42.25 L 44.0625 -42.25 L 44.0625 0 L 1.8125 0 Z M 1.8125 -43.28125 "/></g></g></g><g fill="#0268a3" fill-opacity="1"><g transform="translate(271.815046, 127.176359)"><g><path d="M 22.9375 0.0625 L 1.8125 0.0625 L 1.8125 -42.25 L 22.9375 -42.25 C 25.832031 -42.25 28.554688 -41.695312 31.109375 -40.59375 C 33.671875 -39.488281 35.925781 -37.96875 37.875 -36.03125 C 39.820312 -34.101562 41.335938 -31.847656 42.421875 -29.265625 C 43.515625 -26.691406 44.0625 -23.957031 44.0625 -21.0625 C 44.0625 -18.164062 43.515625 -15.4375 42.421875 -12.875 C 41.335938 -10.320312 39.820312 -8.070312 37.875 -6.125 C 35.925781 -4.175781 33.671875 -2.65625 31.109375 -1.5625 C 28.554688 -0.476562 25.832031 0.0625 22.9375 0.0625 Z M 22.9375 0.0625 "/></g></g></g><g clip-path="url(#d87442194b)"><path fill="#ffffff" d="M 75.804688 99.625 C 75.347656 99.625 75.144531 99.90625 74.980469 100.304688 L 72.222656 107.304688 L 72.136719 107.839844 L 72.136719 111.257812 L 72.148438 113.890625 C 72.136719 114.589844 72.664062 114.957031 73.1875 114.976562 L 75.214844 114.976562 C 75.148438 114.707031 75.109375 114.429688 75.109375 114.144531 C 75.109375 114.128906 75.109375 114.117188 75.109375 114.105469 C 75.128906 112.277344 76.617188 110.796875 78.457031 110.796875 C 80.304688 110.796875 81.800781 112.292969 81.804688 114.136719 L 81.804688 114.148438 C 81.804688 114.4375 81.769531 114.710938 81.703125 114.976562 L 98.933594 114.976562 L 106.859375 114.984375 C 106.789062 114.714844 106.75 114.433594 106.75 114.144531 C 106.75 112.296875 108.25 110.792969 110.097656 110.792969 C 111.941406 110.792969 113.441406 112.296875 113.441406 114.140625 C 113.441406 114.433594 113.398438 114.71875 113.328125 114.992188 L 115.082031 114.992188 C 115.011719 114.726562 114.976562 114.4375 114.976562 114.144531 L 114.976562 114.136719 C 114.976562 112.289062 116.46875 110.796875 118.316406 110.796875 C 120.167969 110.796875 121.664062 112.289062 121.664062 114.136719 L 121.664062 114.148438 C 121.664062 114.449219 121.621094 114.742188 121.550781 115.019531 L 125.289062 115.019531 L 125.355469 102.007812 C 125.367188 100.777344 123.839844 99.566406 122.609375 99.601562 M 80.144531 106.050781 C 80.144531 106.46875 79.78125 106.796875 79.339844 106.796875 L 75.023438 106.796875 C 74.585938 106.796875 73.96875 106.59375 74.273438 105.921875 L 75.445312 102.992188 C 75.617188 102.53125 75.808594 102.246094 76.25 102.246094 L 79.339844 102.246094 C 79.78125 102.246094 80.144531 102.574219 80.144531 102.992188 Z M 89.617188 106.125 C 89.617188 106.558594 89.257812 106.902344 88.820312 106.902344 L 84.539062 106.902344 C 84.101562 106.902344 83.742188 106.558594 83.742188 106.125 L 83.742188 102.921875 C 83.742188 102.484375 84.101562 102.140625 84.539062 102.140625 L 88.820312 102.140625 C 89.257812 102.140625 89.617188 102.484375 89.617188 102.921875 Z M 96.175781 106.125 C 96.175781 106.558594 95.816406 106.902344 95.378906 106.902344 L 91.09375 106.902344 C 90.65625 106.902344 90.296875 106.558594 90.296875 106.125 L 90.296875 102.921875 C 90.296875 102.484375 90.65625 102.140625 91.09375 102.140625 L 95.378906 102.140625 C 95.816406 102.140625 96.175781 102.484375 96.175781 102.921875 Z M 102.730469 106.125 C 102.730469 106.558594 102.371094 106.902344 101.933594 106.902344 L 97.652344 106.902344 C 97.214844 106.902344 96.855469 106.558594 96.855469 106.125 L 96.855469 102.921875 C 96.855469 102.484375 97.214844 102.140625 97.652344 102.140625 L 101.933594 102.140625 C 102.371094 102.140625 102.730469 102.484375 102.730469 102.921875 Z M 109.289062 106.125 C 109.289062 106.558594 108.925781 106.902344 108.492188 106.902344 L 104.207031 106.902344 C 103.769531 106.902344 103.410156 106.558594 103.410156 106.125 L 103.410156 102.921875 C 103.410156 102.484375 103.769531 102.140625 104.207031 102.140625 L 108.492188 102.140625 C 108.925781 102.140625 109.289062 102.484375 109.289062 102.921875 Z M 115.84375 106.125 C 115.84375 106.558594 115.484375 106.902344 115.046875 106.902344 L 110.765625 106.902344 C 110.328125 106.902344 109.96875 106.558594 109.96875 106.125 L 109.96875 102.921875 C 109.96875 102.484375 110.328125 102.140625 110.765625 102.140625 L 115.046875 102.140625 C 115.484375 102.140625 115.84375 102.484375 115.84375 102.921875 Z M 122.398438 106.125 C 122.398438 106.558594 122.039062 106.902344 121.601562 106.902344 L 117.320312 106.902344 C 116.882812 106.902344 116.523438 106.558594 116.523438 106.125 L 116.523438 102.921875 C 116.523438 102.484375 116.882812 102.140625 117.320312 102.140625 L 121.601562 102.140625 C 122.039062 102.140625 122.398438 102.484375 122.398438 102.921875 Z M 122.398438 106.125 " fill-opacity="1" fill-rule="nonzero"/></g><g clip-path="url(#709829b349)"><path fill="#ffffff" d="M 78.457031 117.15625 C 78.457031 117.15625 78.453125 117.15625 78.453125 117.15625 C 76.816406 117.152344 75.496094 115.828125 75.492188 114.191406 C 75.492188 114.179688 75.492188 114.167969 75.492188 114.160156 C 75.507812 112.535156 76.832031 111.222656 78.457031 111.222656 C 80.09375 111.222656 81.421875 112.550781 81.421875 114.1875 C 81.421875 114.191406 81.421875 114.191406 81.421875 114.199219 C 81.417969 115.832031 80.09375 117.15625 78.457031 117.15625 Z M 78.453125 115.210938 C 78.457031 115.210938 78.457031 115.210938 78.457031 115.210938 C 79.019531 115.210938 79.476562 114.753906 79.476562 114.195312 C 79.476562 114.195312 79.476562 114.191406 79.476562 114.1875 C 79.476562 113.625 79.019531 113.171875 78.457031 113.171875 C 77.898438 113.171875 77.441406 113.625 77.441406 114.1875 L 77.441406 114.214844 C 77.449219 114.765625 77.902344 115.210938 78.453125 115.210938 Z M 78.453125 115.210938 " fill-opacity="1" fill-rule="nonzero"/></g><g clip-path="url(#81fbb3921e)"><path fill="#ffffff" d="M 118.320312 117.15625 C 118.320312 117.15625 118.316406 117.15625 118.316406 117.15625 C 116.679688 117.152344 115.355469 115.828125 115.355469 114.191406 C 115.355469 114.191406 115.355469 114.191406 115.355469 114.1875 C 115.355469 112.550781 116.683594 111.222656 118.320312 111.222656 C 119.957031 111.222656 121.285156 112.550781 121.285156 114.1875 C 121.285156 114.191406 121.285156 114.191406 121.285156 114.199219 C 121.28125 115.832031 119.957031 117.15625 118.320312 117.15625 Z M 118.316406 115.210938 C 118.320312 115.210938 118.320312 115.210938 118.320312 115.210938 C 118.882812 115.210938 119.339844 114.753906 119.339844 114.195312 C 119.339844 114.195312 119.339844 114.191406 119.339844 114.1875 C 119.339844 113.625 118.882812 113.171875 118.320312 113.167969 C 117.761719 113.171875 117.304688 113.625 117.304688 114.1875 L 117.304688 114.21875 C 117.316406 114.765625 117.765625 115.210938 118.316406 115.210938 Z M 118.316406 115.210938 " fill-opacity="1" fill-rule="nonzero"/></g><g clip-path="url(#5f53c88419)"><path fill="#ffffff" d="M 110.097656 117.15625 C 110.09375 117.15625 110.09375 117.15625 110.089844 117.15625 C 108.457031 117.152344 107.132812 115.828125 107.132812 114.191406 C 107.132812 114.191406 107.132812 114.191406 107.132812 114.1875 C 107.132812 112.550781 108.460938 111.222656 110.097656 111.222656 C 111.734375 111.222656 113.0625 112.550781 113.0625 114.1875 C 113.0625 114.191406 113.0625 114.191406 113.0625 114.199219 C 113.058594 115.832031 111.730469 117.15625 110.097656 117.15625 Z M 110.09375 115.210938 C 110.09375 115.210938 110.097656 115.210938 110.097656 115.210938 C 110.65625 115.210938 111.113281 114.753906 111.113281 114.195312 C 111.113281 114.195312 111.113281 114.191406 111.113281 114.1875 C 111.113281 113.625 110.660156 113.171875 110.097656 113.167969 C 109.535156 113.171875 109.082031 113.625 109.078125 114.1875 L 109.078125 114.21875 C 109.09375 114.765625 109.542969 115.210938 110.09375 115.210938 Z M 110.09375 115.210938 " fill-opacity="1" fill-rule="nonzero"/></g><g fill="#ffffff" fill-opacity="1"><g transform="translate(277.770397, 109.427583)"><g><path d="M 5.703125 -5.28125 L 3.578125 -5.28125 L 3.578125 0 L 2.328125 0 L 2.328125 -5.28125 L 0.203125 -5.28125 L 0.203125 -6.25 L 5.703125 -6.25 Z M 5.703125 -5.28125 "/></g></g></g><g fill="#ffffff" fill-opacity="1"><g transform="translate(283.413868, 109.427583)"><g><path d="M 5.34375 -1.578125 C 5.414062 -0.835938 5.566406 -0.3125 5.796875 0 L 4.421875 0 C 4.273438 -0.414062 4.171875 -0.878906 4.109375 -1.390625 C 4.023438 -2.097656 3.742188 -2.472656 3.265625 -2.515625 C 3.148438 -2.515625 2.988281 -2.515625 2.78125 -2.515625 L 2.0625 -2.515625 L 2.0625 0 L 0.8125 0 L 0.8125 -6.25 L 3.09375 -6.25 C 3.4375 -6.25 3.738281 -6.234375 4 -6.203125 C 4.488281 -6.148438 4.882812 -5.988281 5.1875 -5.71875 C 5.488281 -5.445312 5.640625 -5.054688 5.640625 -4.546875 C 5.640625 -4.148438 5.53125 -3.820312 5.3125 -3.5625 C 5.09375 -3.3125 4.789062 -3.132812 4.40625 -3.03125 C 4.945312 -2.820312 5.257812 -2.335938 5.34375 -1.578125 Z M 2.0625 -3.453125 L 2.921875 -3.453125 C 3.171875 -3.453125 3.335938 -3.457031 3.421875 -3.46875 C 4.023438 -3.519531 4.328125 -3.816406 4.328125 -4.359375 C 4.328125 -4.640625 4.253906 -4.847656 4.109375 -4.984375 C 3.960938 -5.117188 3.757812 -5.207031 3.5 -5.25 C 3.351562 -5.269531 3.175781 -5.28125 2.96875 -5.28125 L 2.0625 -5.28125 Z M 2.0625 -3.453125 "/></g></g></g><g fill="#ffffff" fill-opacity="1"><g transform="translate(289.338154, 109.427583)"><g><path d="M 4.203125 -1.890625 L 2.09375 -1.890625 L 1.46875 0 L 0.140625 0 L 2.390625 -6.25 L 3.953125 -6.25 L 6.171875 0 L 4.8125 0 Z M 3.15625 -5.1875 L 2.40625 -2.875 L 3.875 -2.875 Z M 3.15625 -5.1875 "/></g></g></g><g fill="#ffffff" fill-opacity="1"><g transform="translate(295.461727, 109.427583)"><g><path d="M 6.296875 0 L 4.578125 0 L 2.015625 -4.75 C 2.046875 -4.175781 2.0625 -3.535156 2.0625 -2.828125 L 2.0625 0 L 0.8125 0 L 0.8125 -6.25 L 2.46875 -6.25 L 5.09375 -1.40625 C 5.0625 -1.96875 5.046875 -2.625 5.046875 -3.375 L 5.046875 -6.25 L 6.296875 -6.25 Z M 6.296875 0 "/></g></g></g><g fill="#ffffff" fill-opacity="1"><g transform="translate(302.346217, 109.427583)"><g><path d="M 2.875 -6.375 C 3.59375 -6.375 4.140625 -6.195312 4.515625 -5.84375 C 4.890625 -5.488281 5.113281 -5.007812 5.1875 -4.40625 L 3.921875 -4.40625 C 3.878906 -4.738281 3.765625 -4.992188 3.578125 -5.171875 C 3.398438 -5.359375 3.15625 -5.453125 2.84375 -5.453125 C 2.582031 -5.453125 2.367188 -5.382812 2.203125 -5.25 C 2.035156 -5.125 1.953125 -4.941406 1.953125 -4.703125 C 1.953125 -4.441406 2.050781 -4.234375 2.25 -4.078125 C 2.445312 -3.929688 2.796875 -3.796875 3.296875 -3.671875 C 3.972656 -3.515625 4.472656 -3.273438 4.796875 -2.953125 C 5.117188 -2.640625 5.28125 -2.226562 5.28125 -1.71875 C 5.28125 -1.15625 5.054688 -0.707031 4.609375 -0.375 C 4.160156 -0.0390625 3.613281 0.125 2.96875 0.125 C 2.207031 0.125 1.597656 -0.0390625 1.140625 -0.375 C 0.691406 -0.707031 0.4375 -1.195312 0.375 -1.84375 L 1.65625 -1.84375 C 1.726562 -1.507812 1.878906 -1.253906 2.109375 -1.078125 C 2.347656 -0.898438 2.628906 -0.8125 2.953125 -0.8125 C 3.242188 -0.8125 3.488281 -0.878906 3.6875 -1.015625 C 3.882812 -1.160156 3.984375 -1.351562 3.984375 -1.59375 C 3.984375 -1.863281 3.882812 -2.078125 3.6875 -2.234375 C 3.5 -2.398438 3.179688 -2.535156 2.734375 -2.640625 C 2.023438 -2.816406 1.5 -3.046875 1.15625 -3.328125 C 0.8125 -3.609375 0.640625 -4.015625 0.640625 -4.546875 C 0.640625 -5.109375 0.859375 -5.550781 1.296875 -5.875 C 1.734375 -6.207031 2.257812 -6.375 2.875 -6.375 Z M 2.875 -6.375 "/></g></g></g><g fill="#000000" fill-opacity="1"><g transform="translate(228.365142, 138.687785)"><g><path d="M 2.515625 -5.640625 C 2.898438 -5.640625 3.222656 -5.566406 3.484375 -5.421875 C 3.742188 -5.285156 3.945312 -5.09375 4.09375 -4.84375 C 4.25 -4.59375 4.34375 -4.3125 4.375 -4 L 3.625 -4 C 3.59375 -4.34375 3.476562 -4.609375 3.28125 -4.796875 C 3.082031 -4.992188 2.804688 -5.09375 2.453125 -5.09375 C 2.160156 -5.09375 1.910156 -5.023438 1.703125 -4.890625 C 1.503906 -4.753906 1.40625 -4.539062 1.40625 -4.25 C 1.40625 -3.945312 1.5 -3.71875 1.6875 -3.5625 C 1.875 -3.414062 2.175781 -3.296875 2.59375 -3.203125 C 3.207031 -3.054688 3.664062 -2.847656 3.96875 -2.578125 C 4.269531 -2.316406 4.421875 -1.953125 4.421875 -1.484375 C 4.421875 -1.160156 4.335938 -0.878906 4.171875 -0.640625 C 4.003906 -0.398438 3.773438 -0.210938 3.484375 -0.078125 C 3.203125 0.046875 2.882812 0.109375 2.53125 0.109375 C 1.914062 0.109375 1.421875 -0.0351562 1.046875 -0.328125 C 0.679688 -0.617188 0.472656 -1.035156 0.421875 -1.578125 L 1.15625 -1.578125 C 1.238281 -1.210938 1.398438 -0.929688 1.640625 -0.734375 C 1.878906 -0.535156 2.179688 -0.4375 2.546875 -0.4375 C 2.859375 -0.4375 3.125 -0.515625 3.34375 -0.671875 C 3.570312 -0.835938 3.6875 -1.066406 3.6875 -1.359375 C 3.6875 -1.691406 3.582031 -1.945312 3.375 -2.125 C 3.164062 -2.300781 2.816406 -2.445312 2.328125 -2.5625 C 2.003906 -2.632812 1.71875 -2.726562 1.46875 -2.84375 C 1.21875 -2.96875 1.019531 -3.128906 0.875 -3.328125 C 0.738281 -3.523438 0.671875 -3.78125 0.671875 -4.09375 C 0.671875 -4.40625 0.753906 -4.675781 0.921875 -4.90625 C 1.085938 -5.144531 1.3125 -5.328125 1.59375 -5.453125 C 1.875 -5.578125 2.179688 -5.640625 2.515625 -5.640625 Z M 2.515625 -5.640625 "/></g></g></g><g fill="#000000" fill-opacity="1"><g transform="translate(236.110325, 138.687785)"><g><path d="M 2.984375 -5.640625 C 3.546875 -5.640625 4.019531 -5.515625 4.40625 -5.265625 C 4.800781 -5.023438 5.097656 -4.6875 5.296875 -4.25 C 5.503906 -3.820312 5.609375 -3.328125 5.609375 -2.765625 C 5.609375 -2.203125 5.503906 -1.703125 5.296875 -1.265625 C 5.097656 -0.835938 4.800781 -0.5 4.40625 -0.25 C 4.019531 -0.0078125 3.546875 0.109375 2.984375 0.109375 C 2.421875 0.109375 1.945312 -0.0078125 1.5625 -0.25 C 1.175781 -0.5 0.878906 -0.835938 0.671875 -1.265625 C 0.472656 -1.703125 0.375 -2.203125 0.375 -2.765625 C 0.375 -3.328125 0.472656 -3.820312 0.671875 -4.25 C 0.878906 -4.6875 1.175781 -5.023438 1.5625 -5.265625 C 1.945312 -5.515625 2.421875 -5.640625 2.984375 -5.640625 Z M 2.984375 -0.4375 C 3.566406 -0.4375 4.019531 -0.644531 4.34375 -1.0625 C 4.664062 -1.476562 4.828125 -2.046875 4.828125 -2.765625 C 4.828125 -3.484375 4.664062 -4.050781 4.34375 -4.46875 C 4.019531 -4.882812 3.566406 -5.09375 2.984375 -5.09375 C 2.398438 -5.09375 1.945312 -4.882812 1.625 -4.46875 C 1.300781 -4.050781 1.140625 -3.484375 1.140625 -2.765625 C 1.140625 -2.046875 1.300781 -1.476562 1.625 -1.0625 C 1.945312 -0.644531 2.398438 -0.4375 2.984375 -0.4375 Z M 2.984375 -0.4375 "/></g></g></g><g fill="#000000" fill-opacity="1"><g transform="translate(245.072506, 138.687785)"><g><path d="M 4.484375 -0.5625 L 4.484375 0 L 0.796875 0 L 0.796875 -5.53125 L 1.484375 -5.53125 L 1.484375 -0.5625 Z M 4.484375 -0.5625 "/></g></g></g><g fill="#000000" fill-opacity="1"><g transform="translate(252.737627, 138.687785)"><g><path d="M 4.90625 -5.53125 L 4.90625 -2.046875 C 4.90625 -1.960938 4.90625 -1.878906 4.90625 -1.796875 C 4.90625 -1.710938 4.898438 -1.628906 4.890625 -1.546875 C 4.859375 -1.242188 4.765625 -0.96875 4.609375 -0.71875 C 4.460938 -0.46875 4.242188 -0.265625 3.953125 -0.109375 C 3.660156 0.0351562 3.285156 0.109375 2.828125 0.109375 C 2.378906 0.109375 2.003906 0.0351562 1.703125 -0.109375 C 1.410156 -0.265625 1.1875 -0.46875 1.03125 -0.71875 C 0.882812 -0.96875 0.796875 -1.242188 0.765625 -1.546875 C 0.765625 -1.628906 0.757812 -1.710938 0.75 -1.796875 C 0.75 -1.878906 0.75 -1.960938 0.75 -2.046875 L 0.75 -5.53125 L 1.4375 -5.53125 L 1.4375 -2.109375 C 1.4375 -2.023438 1.4375 -1.941406 1.4375 -1.859375 C 1.445312 -1.773438 1.453125 -1.695312 1.453125 -1.625 C 1.484375 -1.269531 1.613281 -0.984375 1.84375 -0.765625 C 2.082031 -0.546875 2.410156 -0.4375 2.828125 -0.4375 C 3.253906 -0.4375 3.582031 -0.546875 3.8125 -0.765625 C 4.039062 -0.984375 4.171875 -1.269531 4.203125 -1.625 C 4.210938 -1.695312 4.21875 -1.773438 4.21875 -1.859375 C 4.21875 -1.941406 4.21875 -2.023438 4.21875 -2.109375 L 4.21875 -5.53125 Z M 4.90625 -5.53125 "/></g></g></g><g fill="#000000" fill-opacity="1"><g transform="translate(261.259455, 138.687785)"><g><path d="M 4.90625 -4.96875 L 2.9375 -4.96875 L 2.9375 0 L 2.25 0 L 2.25 -4.96875 L 0.265625 -4.96875 L 0.265625 -5.53125 L 4.90625 -5.53125 Z M 4.90625 -4.96875 "/></g></g></g><g fill="#000000" fill-opacity="1"><g transform="translate(269.220819, 138.687785)"><g><path d="M 1.484375 0 L 0.796875 0 L 0.796875 -5.53125 L 1.484375 -5.53125 Z M 1.484375 0 "/></g></g></g><g fill="#000000" fill-opacity="1"><g transform="translate(274.395897, 138.687785)"><g><path d="M 2.984375 -5.640625 C 3.546875 -5.640625 4.019531 -5.515625 4.40625 -5.265625 C 4.800781 -5.023438 5.097656 -4.6875 5.296875 -4.25 C 5.503906 -3.820312 5.609375 -3.328125 5.609375 -2.765625 C 5.609375 -2.203125 5.503906 -1.703125 5.296875 -1.265625 C 5.097656 -0.835938 4.800781 -0.5 4.40625 -0.25 C 4.019531 -0.0078125 3.546875 0.109375 2.984375 0.109375 C 2.421875 0.109375 1.945312 -0.0078125 1.5625 -0.25 C 1.175781 -0.5 0.878906 -0.835938 0.671875 -1.265625 C 0.472656 -1.703125 0.375 -2.203125 0.375 -2.765625 C 0.375 -3.328125 0.472656 -3.820312 0.671875 -4.25 C 0.878906 -4.6875 1.175781 -5.023438 1.5625 -5.265625 C 1.945312 -5.515625 2.421875 -5.640625 2.984375 -5.640625 Z M 2.984375 -0.4375 C 3.566406 -0.4375 4.019531 -0.644531 4.34375 -1.0625 C 4.664062 -1.476562 4.828125 -2.046875 4.828125 -2.765625 C 4.828125 -3.484375 4.664062 -4.050781 4.34375 -4.46875 C 4.019531 -4.882812 3.566406 -5.09375 2.984375 -5.09375 C 2.398438 -5.09375 1.945312 -4.882812 1.625 -4.46875 C 1.300781 -4.050781 1.140625 -3.484375 1.140625 -2.765625 C 1.140625 -2.046875 1.300781 -1.476562 1.625 -1.0625 C 1.945312 -0.644531 2.398438 -0.4375 2.984375 -0.4375 Z M 2.984375 -0.4375 "/></g></g></g><g fill="#000000" fill-opacity="1"><g transform="translate(283.358079, 138.687785)"><g><path d="M 5.125 0 L 4.078125 0 L 1.46875 -4.859375 C 1.476562 -4.535156 1.484375 -4.1875 1.484375 -3.8125 C 1.484375 -3.4375 1.484375 -3.085938 1.484375 -2.765625 L 1.484375 0 L 0.796875 0 L 0.796875 -5.53125 L 1.859375 -5.53125 L 4.46875 -0.671875 C 4.457031 -0.992188 4.445312 -1.34375 4.4375 -1.71875 C 4.4375 -2.09375 4.4375 -2.441406 4.4375 -2.765625 L 4.4375 -5.53125 L 5.109375 -5.53125 Z M 5.125 0 "/></g></g></g><g fill="#000000" fill-opacity="1"><g transform="translate(292.168144, 138.687785)"><g><path d="M 2.515625 -5.640625 C 2.898438 -5.640625 3.222656 -5.566406 3.484375 -5.421875 C 3.742188 -5.285156 3.945312 -5.09375 4.09375 -4.84375 C 4.25 -4.59375 4.34375 -4.3125 4.375 -4 L 3.625 -4 C 3.59375 -4.34375 3.476562 -4.609375 3.28125 -4.796875 C 3.082031 -4.992188 2.804688 -5.09375 2.453125 -5.09375 C 2.160156 -5.09375 1.910156 -5.023438 1.703125 -4.890625 C 1.503906 -4.753906 1.40625 -4.539062 1.40625 -4.25 C 1.40625 -3.945312 1.5 -3.71875 1.6875 -3.5625 C 1.875 -3.414062 2.175781 -3.296875 2.59375 -3.203125 C 3.207031 -3.054688 3.664062 -2.847656 3.96875 -2.578125 C 4.269531 -2.316406 4.421875 -1.953125 4.421875 -1.484375 C 4.421875 -1.160156 4.335938 -0.878906 4.171875 -0.640625 C 4.003906 -0.398438 3.773438 -0.210938 3.484375 -0.078125 C 3.203125 0.046875 2.882812 0.109375 2.53125 0.109375 C 1.914062 0.109375 1.421875 -0.0351562 1.046875 -0.328125 C 0.679688 -0.617188 0.472656 -1.035156 0.421875 -1.578125 L 1.15625 -1.578125 C 1.238281 -1.210938 1.398438 -0.929688 1.640625 -0.734375 C 1.878906 -0.535156 2.179688 -0.4375 2.546875 -0.4375 C 2.859375 -0.4375 3.125 -0.515625 3.34375 -0.671875 C 3.570312 -0.835938 3.6875 -1.066406 3.6875 -1.359375 C 3.6875 -1.691406 3.582031 -1.945312 3.375 -2.125 C 3.164062 -2.300781 2.816406 -2.445312 2.328125 -2.5625 C 2.003906 -2.632812 1.71875 -2.726562 1.46875 -2.84375 C 1.21875 -2.96875 1.019531 -3.128906 0.875 -3.328125 C 0.738281 -3.523438 0.671875 -3.78125 0.671875 -4.09375 C 0.671875 -4.40625 0.753906 -4.675781 0.921875 -4.90625 C 1.085938 -5.144531 1.3125 -5.328125 1.59375 -5.453125 C 1.875 -5.578125 2.179688 -5.640625 2.515625 -5.640625 Z M 2.515625 -5.640625 "/></g></g></g></svg>